 http://bayimg.com/MagDAAaEd

Anal_Angels_Demida.mkv
Format                                   : Matroska
Format version                           : Version 2
File size                                : 303 MiB
Duration                                 : 25mn 35s
Overall bit rate                         : 1 656 Kbps
Writing application                      : Lavf52.37.0
Writing library                          : Lavf52.37.0

Video
ID                                       : 1
Format                                   : AVC
Format/Info                              : Advanced Video Codec
Format profile                           : High@L3.0
Format settings, CABAC                   : Yes
Format settings, ReFrames                : 3 frames
Codec ID                                 : V_MPEG4/ISO/AVC
Duration                                 : 25mn 35s
Bit rate                                 : 1 575 Kbps
Width                                    : 720 pixels
Height                                   : 406 pixels
Display aspect ratio                     : 16:9
Frame rate mode                          : Constant
Frame rate                               : 25.000 fps
Color space                              : YUV
Chroma subsampling                       : 4:2:0
Bit depth                                : 8 bits
Scan type                                : Progressive
Bits/(Pixel*Frame)                       : 0.216
Stream size                              : 288 MiB (95%)
Writing library                          : x264 core 115a
Default                                  : Yes
Forced                                   : No

Audio
ID                                       : 2
Format                                   : MPEG Audio
Format version                           : Version 2
Format profile                           : Layer 3
Mode                                     : Joint stereo
Mode extension                           : MS Stereo
Codec ID                                 : A_MPEG/L3
Codec ID/Hint                            : MP3
Duration                                 : 25mn 35s
Bit rate mode                            : Constant
Bit rate                                 : 48.0 Kbps
Channel(s)                               : 2 channels
Sampling rate                            : 16.0 KHz
Compression mode                         : Lossy
Stream size                              : 8.78 MiB (3%)
Default                                  : Yes
Forced                                   : No

